<svg width="24" height="24" viewBox="0 0 24 24" fill="none" xmlns="http://www.w3.org/2000/svg">
<path d="M20 3C21.1046 3 22 3.89543 22 5V7C22 7.76508 21.5696 8.4283 20.9385 8.76465L20.1494 18.249C20.0199 19.8038 18.7202 20.9998 17.1602 21H6.83984C5.27977 20.9998 3.98015 19.8038 3.85059 18.249L3.06055 8.76465C2.42984 8.42817 2 7.76477 2 7V5C2 3.89543 2.89543 3 4 3H20ZM5.84375 18.083C5.88693 18.6012 6.31994 18.9998 6.83984 19H17.1602C17.6801 18.9998 18.1131 18.6012 18.1562 18.083L18.9141 9H5.08594L5.84375 18.083ZM12 11C12.5523 11 13 11.4477 13 12V13H14C14.5523 13 15 13.4477 15 14C15 14.5523 14.5523 15 14 15H13V16C13 16.5523 12.5523 17 12 17C11.4477 17 11 16.5523 11 16V15H10C9.44772 15 9 14.5523 9 14C9 13.4477 9.44772 13 10 13H11V12C11 11.4477 11.4477 11 12 11ZM4 7H20V5H4V7Z" fill="#282828"/>
</svg>
