<svg width="24" height="24" viewBox="0 0 24 24" fill="none" xmlns="http://www.w3.org/2000/svg">
<path d="M20 3C21.1046 3 22 3.89543 22 5V7C22 7.76508 21.5696 8.4283 20.9385 8.76465L20.1494 18.249C20.0199 19.8038 18.7202 20.9998 17.1602 21H6.83984C5.27977 20.9998 3.98015 19.8038 3.85059 18.249L3.06055 8.76465C2.42984 8.42817 2 7.76477 2 7V5C2 3.89543 2.89543 3 4 3H20ZM5.84375 18.083C5.88693 18.6012 6.31994 18.9998 6.83984 19H17.1602C17.6801 18.9998 18.1131 18.6012 18.1562 18.083L18.9141 9H5.08594L5.84375 18.083ZM13.293 11.293C13.6835 10.9024 14.3165 10.9024 14.707 11.293C15.0976 11.6835 15.0976 12.3165 14.707 12.707L13.4141 14L14.707 15.293C15.0976 15.6835 15.0976 16.3165 14.707 16.707C14.3165 17.0976 13.6835 17.0976 13.293 16.707L12 15.4141L10.707 16.707C10.3165 17.0976 9.68349 17.0976 9.29297 16.707C8.90244 16.3165 8.90244 15.6835 9.29297 15.293L10.5859 14L9.29297 12.707C8.90244 12.3165 8.90244 11.6835 9.29297 11.293C9.68349 10.9024 10.3165 10.9024 10.707 11.293L12 12.5859L13.293 11.293ZM4 7H20V5H4V7Z" fill="#282828"/>
</svg>
