<svg width="24" height="24" viewBox="0 0 24 24" fill="none" xmlns="http://www.w3.org/2000/svg">
<path d="M14 3C15.6569 3 17 4.34315 17 6V7H19C20.6569 7 22 8.34315 22 10V18C22 19.6569 20.6569 21 19 21H5C3.39489 21 2.08421 19.7394 2.00391 18.1543L2 18V10C2 8.34315 3.34315 7 5 7H7V6C7 4.34315 8.34315 3 10 3H14ZM17 19H19C19.5523 19 20 18.5523 20 18V10C20 9.44772 19.5523 9 19 9H17V19ZM9 19H15V9H9V19ZM5 9C4.44772 9 4 9.44772 4 10V18L4.00488 18.1025C4.05621 18.6067 4.48232 19 5 19H7V9H5ZM10 5C9.44772 5 9 5.44772 9 6V7H15V6C15 5.44772 14.5523 5 14 5H10Z" fill="#282828"/>
</svg>
