<svg width="24" height="24" viewBox="0 0 24 24" fill="none" xmlns="http://www.w3.org/2000/svg">
<path d="M15.293 2.29297C15.6835 1.90244 16.3165 1.90244 16.707 2.29297C17.0976 2.68349 17.0976 3.31651 16.707 3.70703L15.4453 4.96777C15.7974 5.56341 16 6.25795 16 7V8.17383C17.1647 8.58594 18 9.69415 18 11H21C21.5523 11 22 11.4477 22 12C22 12.5523 21.5523 13 21 13H18V15.4648L20.5547 17.168C21.0142 17.4743 21.1384 18.0952 20.832 18.5547C20.5257 19.0142 19.9048 19.1384 19.4453 18.832L17.7529 17.7031C17.0187 20.187 14.7219 22 12 22C9.278 22 6.98021 20.1871 6.24609 17.7031L4.55469 18.832C4.09516 19.1384 3.47432 19.0142 3.16797 18.5547C2.86162 18.0952 2.98578 17.4743 3.44531 17.168L6 15.4648V13H3C2.44772 13 2 12.5523 2 12C2 11.4477 2.44772 11 3 11H6C6 9.69415 6.83532 8.58594 8 8.17383V7C8 6.25813 8.20177 5.56332 8.55371 4.96777L7.29297 3.70703C6.90244 3.31651 6.90244 2.68349 7.29297 2.29297C7.68349 1.90244 8.31651 1.90244 8.70703 2.29297L9.96777 3.55371C10.5633 3.20177 11.2581 3 12 3C12.7416 3 13.4359 3.20203 14.0312 3.55371L15.293 2.29297ZM9 10C8.44772 10 8 10.4477 8 11V16C8 17.8638 9.27477 19.43 11 19.874V10H9ZM13 19.874C14.7252 19.43 16 17.8638 16 16V11C16 10.4477 15.5523 10 15 10H13V19.874ZM12 5C10.8954 5 10 5.89543 10 7V8H14V7C14 5.89543 13.1046 5 12 5Z" fill="#282828"/>
</svg>
