<svg width="760" height="760" viewBox="0 0 760 760" fill="none" xmlns="http://www.w3.org/2000/svg">
<rect width="760" height="760" rx="74" fill="#EFEFEF" fill-opacity="0.83"/>
<path d="M151.561 357.949C192.684 357.949 174.775 283 230.49 283C286.204 283 257.02 357.949 309.418 357.949C361.816 357.949 332.633 283 389.01 283C445.388 283 414.878 354.633 472.582 354.633C530.286 354.633 493.806 283 549.52 283C605.235 283 576.051 354.633 629.112 354.633" stroke="#282828" stroke-width="20" stroke-linecap="round"/>
<path d="M131 478C173.493 478 154.988 402.388 212.56 402.388C270.131 402.388 239.974 478 294.119 478C348.264 478 318.107 402.388 376.364 402.388C434.621 402.388 403.094 474.654 462.721 474.654C522.349 474.654 484.653 402.388 542.224 402.388C599.796 402.388 569.639 474.654 624.469 474.654" stroke="#282828" stroke-width="20" stroke-linecap="round"/>
<path d="M131.663 476.673L148.908 358.612M298.143 476.673L303.449 358.612M220.541 400.398L228.5 284.99M383.704 400.398L389.01 284.99M462.633 473.357L466.612 355.296M544.878 400.398L548.857 284.99M625.133 473.357L629.112 355.296" stroke="#282828" stroke-width="20" stroke-linecap="round"/>
</svg>
