<svg width="24" height="24" viewBox="0 0 24 24" fill="none" xmlns="http://www.w3.org/2000/svg">
<path d="M10.0244 3.39978C11.1554 2.41026 12.8446 2.41027 13.9756 3.39978L19.9756 8.64978C20.6265 9.21937 20.9999 10.0427 21 10.9076V19.0004C20.9998 20.6571 19.6568 22.0004 18 22.0004H6C4.34325 22.0004 3.00017 20.6571 3 19.0004V10.9076C3.00009 10.0427 3.37354 9.21937 4.02441 8.64978L10.0244 3.39978ZM12.6582 4.90564C12.2812 4.57576 11.7188 4.57576 11.3418 4.90564L5.3418 10.1556C5.12495 10.3455 5.00009 10.6194 5 10.9076V19.0004C5.00017 19.5525 5.44782 20.0004 6 20.0004H18C18.5522 20.0004 18.9998 19.5525 19 19.0004V10.9076C18.9999 10.6194 18.875 10.3455 18.6582 10.1556L12.6582 4.90564ZM16 16.0004C16.5523 16.0004 17 16.4481 17 17.0004C16.9998 17.5525 16.5522 18.0004 16 18.0004H8C7.44784 18.0004 7.0002 17.5525 7 17.0004C7 16.4481 7.44772 16.0004 8 16.0004H16Z" fill="#282828"/>
</svg>
