<svg width="24" height="24" viewBox="0 0 24 24" fill="none" xmlns="http://www.w3.org/2000/svg">
<path d="M12 2C14.7614 2 17 4.23858 17 7V8H18C19.6569 8 21 9.34315 21 11V19C21 20.6569 19.6569 22 18 22H6C4.39489 22 3.08421 20.7394 3.00391 19.1543L3 19V11C3 9.34315 4.34315 8 6 8H7V7C7 4.23858 9.23858 2 12 2ZM6 10C5.44772 10 5 10.4477 5 11V19L5.00488 19.1025C5.05621 19.6067 5.48232 20 6 20H18C18.5523 20 19 19.5523 19 19V11C19 10.4477 18.5523 10 18 10H6ZM12 13C12.5523 13 13 13.4477 13 14V16C13 16.5523 12.5523 17 12 17C11.4477 17 11 16.5523 11 16V14C11 13.4477 11.4477 13 12 13ZM12 4C10.3431 4 9 5.34315 9 7V8H15V7C15 5.34315 13.6569 4 12 4Z" fill="black"/>
</svg>
