<svg width="208" height="87" viewBox="0 0 208 87" fill="none" xmlns="http://www.w3.org/2000/svg">
<path d="M12.2305 34.0011C28.6912 34.0011 21.5228 4 43.8245 4C66.1262 4 54.4444 34.0011 75.4186 34.0011C96.3928 34.0011 84.711 4 107.278 4C129.845 4 117.632 32.6736 140.731 32.6736C163.829 32.6736 149.226 4 171.528 4C193.83 4 182.148 32.6736 203.388 32.6736" stroke="#282828" stroke-width="8" stroke-linecap="round"/>
<path d="M4 82.0559C21.0095 82.0559 13.6021 51.7893 36.6472 51.7893C59.6923 51.7893 47.621 82.0559 69.2944 82.0559C90.9677 82.0559 78.8965 51.7893 102.216 51.7893C125.535 51.7893 112.915 80.7166 136.784 80.7166C160.652 80.7166 145.563 51.7893 168.608 51.7893C191.653 51.7893 179.581 80.7166 201.529 80.7166" stroke="#282828" stroke-width="8" stroke-linecap="round"/>
<path d="M4.2655 81.5249L11.1684 34.2666M70.9051 81.5249L73.029 34.2666M39.842 50.9928L43.028 4.79651M105.154 50.9928L107.278 4.79651M136.748 80.1974L138.341 32.9391M169.67 50.9928L171.263 4.79651M201.795 80.1974L203.388 32.9391" stroke="#282828" stroke-width="8" stroke-linecap="round"/>
</svg>
