<svg width="24" height="24" viewBox="0 0 24 24" fill="none" xmlns="http://www.w3.org/2000/svg">
<path d="M4 3C4.55228 3 5 3.44772 5 4V20C5 20.5523 4.55228 21 4 21C3.44772 21 3 20.5523 3 20V4C3 3.44772 3.44772 3 4 3ZM14.293 6.29297C14.6835 5.90244 15.3165 5.90245 15.707 6.29297L21.4141 12L15.707 17.707C15.3165 18.0976 14.6835 18.0976 14.293 17.707C13.9024 17.3165 13.9024 16.6835 14.293 16.293L17.5859 13H8C7.44772 13 7 12.5523 7 12C7 11.4477 7.44772 11 8 11H17.5859L14.293 7.70703C13.9024 7.31651 13.9024 6.68349 14.293 6.29297Z" fill="#282828"/>
</svg>
