<svg width="24" height="24" viewBox="0 0 24 24" fill="none" xmlns="http://www.w3.org/2000/svg">
<path d="M19 4C19.4625 4 19.8988 4.10803 20.29 4.29492L20.293 4.29297L20.2988 4.29883C20.9111 4.59377 21.4062 5.0889 21.7012 5.70117L21.707 5.70703L21.7041 5.70898C21.8913 6.10047 22 6.53708 22 7V17C22 18.6569 20.6569 20 19 20H5C3.34315 20 2 18.6569 2 17V7C2 6.53723 2.10779 6.10038 2.29492 5.70898L2.29297 5.70703L2.29883 5.70117C2.59377 5.0889 3.0889 4.59377 3.70117 4.29883L3.70703 4.29297L3.70898 4.29492C4.10038 4.10779 4.53723 4 5 4H19ZM14.1211 13.293C12.9496 14.4643 11.0504 14.4643 9.87891 13.293L4 7.41406V17C4 17.5523 4.44772 18 5 18H19C19.5523 18 20 17.5523 20 17V7.41406L14.1211 13.293ZM11.293 11.8789C11.6835 12.2692 12.3165 12.2692 12.707 11.8789L18.5859 6H5.41406L11.293 11.8789Z" fill="#282828"/>
</svg>
