<svg width="24" height="24" viewBox="0 0 24 24" fill="none" xmlns="http://www.w3.org/2000/svg">
<path d="M13.3359 3.90759C14.3436 3.23595 15.6564 3.23595 16.6641 3.90759L20.6641 6.57458C21.4985 7.13099 22 8.06771 22 9.07068V16.2631C21.9997 18.6588 19.3295 20.088 17.3359 18.7592L15.5547 17.5717C15.2189 17.3479 14.7811 17.3479 14.4453 17.5717L10.5205 20.1888C9.62483 20.7859 8.47745 20.8567 7.51465 20.3754L3.6582 18.4476C2.64202 17.9395 2.00014 16.9002 2 15.764V7.73767C2 5.34159 4.6704 3.91247 6.66406 5.24158L8.44531 6.42908C8.78105 6.6527 9.21895 6.6527 9.55469 6.42908L13.3359 3.90759ZM5.55469 6.90564C4.89013 6.4626 4 6.93898 4 7.73767V15.764C4.00014 16.1426 4.21412 16.4892 4.55273 16.6586L8 18.3822V8.42224C7.76946 8.34067 7.54556 8.23284 7.33594 8.09314L5.55469 6.90564ZM10.6641 8.09314C10.4544 8.23284 10.2305 8.34067 10 8.42224V18.1312L13.3359 15.9076C13.5457 15.7678 13.7693 15.6581 14 15.5765V5.86853L10.6641 8.09314ZM16 15.5765C16.2307 15.6581 16.4543 15.7678 16.6641 15.9076L18.4453 17.0951C19.1097 17.5379 19.9997 17.0615 20 16.2631V9.07068C20 8.73642 19.8328 8.42412 19.5547 8.23865L16 5.86853V15.5765Z" fill="#282828"/>
</svg>
