<svg width="20" height="24" viewBox="0 0 20 24" fill="none" xmlns="http://www.w3.org/2000/svg">
<path d="M14 0C16.7614 0 19 2.23858 19 5V8.76758C19.6127 9.31685 20 10.1124 20 11V15C20 15.8874 19.6124 16.6822 19 17.2314V20C19 21.6569 17.6569 23 16 23H12.4961C12.0399 23.6061 11.317 24 10.5 24H9.5C8.11929 24 7 22.8807 7 21.5C7 20.1193 8.11929 19 9.5 19H10.5C11.7095 19 12.7186 19.8589 12.9502 21H16C16.5523 21 17 20.5523 17 20V18H12V8H17V5C17 3.34315 15.6569 2 14 2H6C4.34315 2 3 3.34315 3 5V8H8V18H3C1.34315 18 0 16.6569 0 15V11C0 10.1124 0.387314 9.31685 1 8.76758V5C1 2.23858 3.23858 8.0532e-09 6 0H14ZM9.5 21C9.22386 21 9 21.2239 9 21.5C9 21.7761 9.22386 22 9.5 22H10.5C10.7761 22 11 21.7761 11 21.5C11 21.2239 10.7761 21 10.5 21H9.5ZM3 10C2.44772 10 2 10.4477 2 11V15C2 15.5523 2.44772 16 3 16H6V10H3ZM14 16H17C17.5523 16 18 15.5523 18 15V11C18 10.4477 17.5523 10 17 10H14V16Z" fill="#282828"/>
</svg>
