<svg width="24" height="24" viewBox="0 0 24 24" fill="none" xmlns="http://www.w3.org/2000/svg">
<path d="M20 12.9999C20.5522 12.9999 20.9999 13.4477 21 13.9999V17.9999C21 19.6567 19.6569 20.9999 18 20.9999H6C4.34315 20.9999 3 19.6567 3 17.9999V13.9999C3.00008 13.4477 3.44777 12.9999 4 12.9999C4.55223 12.9999 4.99992 13.4477 5 13.9999V17.9999C5 18.5522 5.44772 18.9999 6 18.9999H18C18.5523 18.9999 19 18.5522 19 17.9999V13.9999C19.0001 13.4477 19.4478 12.9999 20 12.9999ZM17.707 8.29285C18.0975 8.68335 18.0975 9.31638 17.707 9.70691C17.3165 10.0974 16.6835 10.0974 16.293 9.70691L13 6.41394V15.9999C13 16.5522 12.5523 16.9999 12 16.9999C11.4477 16.9999 11 16.5522 11 15.9999V6.41394L7.70703 9.70691C7.31651 10.0974 6.68349 10.0974 6.29297 9.70691C5.90252 9.31638 5.90247 8.68335 6.29297 8.29285L12 2.58582L17.707 8.29285Z" fill="#282828"/>
</svg>
