<svg width="24" height="24" viewBox="0 0 24 24" fill="none" xmlns="http://www.w3.org/2000/svg">
<path d="M15.2188 2C16.1364 2 16.9365 2.6245 17.1592 3.51465L17.7803 6H21C21.5523 6 22 6.44772 22 7C22 7.55228 21.5523 8 21 8H19.9307L19.1299 19.2139C19.0177 20.7837 17.7116 22 16.1377 22H7.8623C6.28844 22 4.98232 20.7837 4.87012 19.2139L4.06934 8H3C2.44772 8 2 7.55228 2 7C2 6.44772 2.44772 6 3 6H6.21973L6.84082 3.51465C7.06352 2.6245 7.86363 2 8.78125 2H15.2188ZM6.86523 19.0713C6.90265 19.5946 7.33769 20 7.8623 20H16.1377C16.6623 20 17.0974 19.5946 17.1348 19.0713L17.9268 8H6.07324L6.86523 19.0713ZM10 10C10.5523 10 11 10.4477 11 11V17C11 17.5523 10.5523 18 10 18C9.44772 18 9 17.5523 9 17V11C9 10.4477 9.44772 10 10 10ZM14 10C14.5523 10 15 10.4477 15 11V17C15 17.5523 14.5523 18 14 18C13.4477 18 13 17.5523 13 17V11C13 10.4477 13.4477 10 14 10ZM8.28027 6H15.7197L15.2188 4H8.78125L8.28027 6Z" fill="#282828"/>
</svg>
