<svg width="24" height="24" viewBox="0 0 24 24" fill="none" xmlns="http://www.w3.org/2000/svg">
<path d="M8 12C11.3137 12 14 14.6863 14 18V19.7305C14 20.4314 13.4314 21 12.7305 21H3.26953C2.56855 21 2 20.4314 2 19.7305V18C2 14.6863 4.68629 12 8 12ZM8 14C5.79086 14 4 15.7909 4 18V19H12V18C12 15.7909 10.2091 14 8 14ZM8 3C10.2091 3 12 4.79086 12 7C12 9.20914 10.2091 11 8 11C5.79086 11 4 9.20914 4 7C4 4.79086 5.79086 3 8 3ZM8 5C6.89543 5 6 5.89543 6 7C6 8.10457 6.89543 9 8 9C9.10457 9 10 8.10457 10 7C10 5.89543 9.10457 5 8 5Z" fill="#282828"/>
</svg>
