<svg width="24" height="24" viewBox="0 0 24 24" fill="none" xmlns="http://www.w3.org/2000/svg">
<path d="M20 19.0001C20.5523 19.0001 21 19.4478 21 20.0001C20.9999 20.5523 20.5522 21.0001 20 21.0001H4C3.44777 21.0001 3.00008 20.5523 3 20.0001C3 19.4478 3.44772 19.0001 4 19.0001H20ZM13.5859 4.00012C14.367 3.21917 15.633 3.21918 16.4141 4.00012L18 5.58606C18.7809 6.36709 18.7809 7.63318 18 8.41418L10 16.4142C9.62497 16.7892 9.11628 17.0001 8.58594 17.0001H7C5.9644 17.0001 5.11307 16.2128 5.01074 15.2042L5 15.0001V13.4142C5.00004 12.8838 5.21095 12.3752 5.58594 12.0001L13.5859 4.00012ZM7 13.4142V15.0001H8.58594L16.5859 7.00012L15 5.41418L7 13.4142Z" fill="#282828"/>
</svg>
